<svg fill="none" height="40" viewBox="0 0 36 40" width="36" xmlns="http://www.w3.org/2000/svg"><path d="m8 12.97h20v4h-20z" fill="#f93651" opacity=".4"/><path d="m28 12.9699h-20m-4 7h28c.5523 0 1-.4477 1-1v-1c0-.5523-.4477-1-1-1h-28c-.55228 0-1 .4477-1 1v1c0 .5523.44772 1 1 1zm24-3v-6.9679c0-2.00962-1.9372-3.45096-3.862-2.87351l-.391.1173c-3.7488 1.12463-7.7452 1.12463-11.494 0l-.391-.1173c-1.92479-.57745-3.862.86389-3.862 2.87351v6.9679z" stroke="#f93651"/><path d="m20 28c0 2.7614 2.2386 5 5 5s5-2.2386 5-5-2.2386-5-5-5-5 2.2386-5 5zm0 0h-4m0 0c0 2.7614-2.2386 5-5 5-2.76142 0-5-2.2386-5-5s2.23858-5 5-5c2.7614 0 5 2.2386 5 5z" stroke="#fff"/></svg>