<svg fill="none" height="58" viewBox="0 0 54 58" width="54" xmlns="http://www.w3.org/2000/svg"><g fill="#fff"><path d="m44.1333 27.2481-3.6834 2.1266c-.1672-.2892-.3437-.5724-.529-.8493l3.7124-2.1433z"/><path d="m44.1333 27.2481-3.6834 2.1266c-.1672-.2892-.3437-.5724-.529-.8493l3.7124-2.1433z"/><path d="m44.1333 27.2481-3.6834 2.1266c-.1672-.2892-.3437-.5724-.529-.8493l3.7124-2.1433z"/><path d="m44.1333 27.2481-3.6834 2.1266c-.1672-.2892-.3437-.5724-.529-.8493l3.7124-2.1433z"/></g><path d="m44.1333 27.2481-3.6834 2.1266c-.1672-.2892-.3437-.5724-.529-.8493l3.7124-2.1433z" fill="#ba43ff"/><path d="m42.4915 36.9415h6.9281v-1h-6.9645c.0228.3306.035.664.0364 1z" fill="#fff"/><path d="m42.4915 36.9415h6.9281v-1h-6.9645c.0228.3306.035.664.0364 1z" fill="#fff"/><path d="m42.4915 36.9415h6.9281v-1h-6.9645c.0228.3306.035.664.0364 1z" fill="#fff"/><path d="m42.4915 36.9415h6.9281v-1h-6.9645c.0228.3306.035.664.0364 1z" fill="#fff"/><path d="m42.4915 36.9415h6.9281v-1h-6.9645c.0228.3306.035.664.0364 1z" fill="#ba43ff"/><path d="m43.6332 46.5009-3.1934-1.8438c.167-.288.325-.5819.4733-.8814l3.2201 1.8591z" fill="#fff"/><path d="m43.6332 46.5009-3.1934-1.8438c.167-.288.325-.5819.4733-.8814l3.2201 1.8591z" fill="#fff"/><path d="m43.6332 46.5009-3.1934-1.8438c.167-.288.325-.5819.4733-.8814l3.2201 1.8591z" fill="#fff"/><path d="m43.6332 46.5009-3.1934-1.8438c.167-.288.325-.5819.4733-.8814l3.2201 1.8591z" fill="#fff"/><path d="m43.6332 46.5009-3.1934-1.8438c.167-.288.325-.5819.4733-.8814l3.2201 1.8591z" fill="#ba43ff"/><path d="m18.9111 49.8153c.2791.1815.5646.3541.8559.5175l-3.229 5.5929-.8661-.5z" fill="#fff"/><path d="m18.9111 49.8153c.2791.1815.5646.3541.8559.5175l-3.229 5.5929-.8661-.5z" fill="#fff"/><path d="m18.9111 49.8153c.2791.1815.5646.3541.8559.5175l-3.229 5.5929-.8661-.5z" fill="#fff"/><path d="m18.9111 49.8153c.2791.1815.5646.3541.8559.5175l-3.229 5.5929-.8661-.5z" fill="#fff"/><path d="m18.9111 49.8153c.2791.1815.5646.3541.8559.5175l-3.229 5.5929-.8661-.5z" fill="#ba43ff"/><path d="m27.2241 52.2747c.1625 0 .3245-.0025.4857-.0076v3.9599h-1v-3.9608c.1708.0057.3422.0085.5143.0085z" fill="#fff"/><path d="m27.2241 52.2747c.1625 0 .3245-.0025.4857-.0076v3.9599h-1v-3.9608c.1708.0057.3422.0085.5143.0085z" fill="#fff"/><path d="m27.2241 52.2747c.1625 0 .3245-.0025.4857-.0076v3.9599h-1v-3.9608c.1708.0057.3422.0085.5143.0085z" fill="#fff"/><path d="m27.2241 52.2747c.1625 0 .3245-.0025.4857-.0076v3.9599h-1v-3.9608c.1708.0057.3422.0085.5143.0085z" fill="#fff"/><path d="m27.2241 52.2747c.1625 0 .3245-.0025.4857-.0076v3.9599h-1v-3.9608c.1708.0057.3422.0085.5143.0085z" fill="#ba43ff"/><path d="m34.6596 50.3449c.2916-.1629.5773-.3351.8567-.5162l3.2315 5.597-.8661.5z" fill="#fff"/><path d="m34.6596 50.3449c.2916-.1629.5773-.3351.8567-.5162l3.2315 5.597-.8661.5z" fill="#fff"/><path d="m34.6596 50.3449c.2916-.1629.5773-.3351.8567-.5162l3.2315 5.597-.8661.5z" fill="#fff"/><path d="m34.6596 50.3449c.2916-.1629.5773-.3351.8567-.5162l3.2315 5.597-.8661.5z" fill="#fff"/><path d="m34.6596 50.3449c.2916-.1629.5773-.3351.8567-.5162l3.2315 5.597-.8661.5z" fill="#ba43ff"/><path d="m10.7865 26.3821 3.7329 2.1552c-.185.277-.3612.5603-.5282.8497l-3.7047-2.1389z" fill="#fff"/><path d="m10.7865 26.3821 3.7329 2.1552c-.185.277-.3612.5603-.5282.8497l-3.7047-2.1389z" fill="#fff"/><path d="m10.7865 26.3821 3.7329 2.1552c-.185.277-.3612.5603-.5282.8497l-3.7047-2.1389z" fill="#fff"/><path d="m10.7865 26.3821 3.7329 2.1552c-.185.277-.3612.5603-.5282.8497l-3.7047-2.1389z" fill="#fff"/><path d="m10.7865 26.3821 3.7329 2.1552c-.185.277-.3612.5603-.5282.8497l-3.7047-2.1389z" fill="#ba43ff"/><path d="m11.9932 35.9415h-6.9932v1h6.9567c.0014-.336.0137-.6694.0365-1z" fill="#fff"/><path d="m11.9932 35.9415h-6.9932v1h6.9567c.0014-.336.0137-.6694.0365-1z" fill="#fff"/><path d="m11.9932 35.9415h-6.9932v1h6.9567c.0014-.336.0137-.6694.0365-1z" fill="#fff"/><path d="m11.9932 35.9415h-6.9932v1h6.9567c.0014-.336.0137-.6694.0365-1z" fill="#fff"/><path d="m11.9932 35.9415h-6.9932v1h6.9567c.0014-.336.0137-.6694.0365-1z" fill="#ba43ff"/><path d="m10.2866 45.6348 3.2422-1.8719c.1481.2997.3057.5938.4725.8819l-3.2147 1.8561z" fill="#fff"/><path d="m10.2866 45.6348 3.2422-1.8719c.1481.2997.3057.5938.4725.8819l-3.2147 1.8561z" fill="#fff"/><path d="m10.2866 45.6348 3.2422-1.8719c.1481.2997.3057.5938.4725.8819l-3.2147 1.8561z" fill="#fff"/><path d="m10.2866 45.6348 3.2422-1.8719c.1481.2997.3057.5938.4725.8819l-3.2147 1.8561z" fill="#fff"/><path d="m10.2866 45.6348 3.2422-1.8719c.1481.2997.3057.5938.4725.8819l-3.2147 1.8561z" fill="#ba43ff"/><ellipse cx="27.1989" cy="36.5413" rx="12.5" ry="12.4586" stroke="#fff"/><ellipse cx="27.1989" cy="36.5413" rx="12.5" ry="12.4586" stroke="#fff"/><path d="m26.7191 30.477c.3673-.7417 1.4251-.7417 1.7923 0l1.1632 2.349c.1459.2947.4273.4988.7528.5459l2.5954.3759c.8212.1189 1.1486 1.1287.5535 1.7069l-1.8738 1.8205c-.2367.2299-.3447.5617-.2887.8868l.4429 2.5739c.1405.8164-.7158 1.4399-1.4497 1.0553l-2.3276-1.2196c-.2907-.1523-.6376-.1523-.9283 0l-2.3276 1.2196c-.7338.3846-1.5902-.2389-1.4497-1.0553l.443-2.5739c.0559-.3251-.0521-.6569-.2887-.8868l-1.8738-1.8205c-.5952-.5782-.2678-1.588.5535-1.7069l2.5953-.3759c.3255-.0471.6069-.2512.7529-.5459z" stroke="#fff"/><path d="m33.2155 1.15967v20.73423" stroke="#ba43ff"/><path d="m21.6064 1.17163c-3.4075-.00004-5.9075.32837-5.9075 2.82813v22.00004c2.194-2.0546 3.5045-2.9684 5.9075-4z" fill="#ba43ff" opacity=".4"/><path d="m32.6989 1c3.4075-.000037 5.9075.32837 5.9075 2.82813v22.00007c-2.194-2.0546-3.5045-2.9685-5.9075-4z" fill="#ba43ff" opacity=".4"/><path d="m21.5708 1.15967v20.73423" stroke="#ba43ff"/><path d="m18.7207 1.15967h16.9783c1.6568 0 3 1.34314 3 3v21.94793c-2.8364-3.1367-6.9381-5.1076-11.5001-5.1076-4.5503 0-8.6426 1.9607-11.4782 5.0834v-21.92373c0-1.65686 1.3431-3 3-3z" stroke="#ba43ff"/></svg>