<svg fill="none" height="58" viewBox="0 0 54 58" width="54" xmlns="http://www.w3.org/2000/svg"><circle cx="26.9989" cy="25.0004" r="23.8046" stroke="#f55"/><path clip-rule="evenodd" d="m27 5.92508c-10.5348 0-19.07492 8.54012-19.07492 19.07492s8.54012 19.0749 19.07492 19.0749 19.0749-8.5401 19.0749-19.0749-8.5401-19.07492-19.0749-19.07492zm-24 19.07492c0-13.2548 10.7452-24 24-24s24 10.7452 24 24-10.7452 24-24 24-24-10.7452-24-24z" fill="#f55" fill-rule="evenodd" opacity=".4"/><circle cx="26.9998" cy="25.0003" r="19.2704" stroke="#f55"/><g stroke="#fff"><path d="m18.0225 23.3779c0-2.2091 1.7908-4 4-4h9.9554c2.2091 0 4 1.7909 4 4v8.9579c0 2.2092-1.7909 4-4 4h-9.9554c-2.2092 0-4-1.7908-4-4z"/><path d="m22.0127 16.3851c0-2.7546 2.233-4.9876 4.9876-4.9876 2.7546 0 4.9876 2.233 4.9876 4.9876v2.9926h-9.9752z"/><path d="m27.0003 29.3528c1.6527 0 2.9925-1.3398 2.9925-2.9926 0-1.6527-1.3398-2.9925-2.9925-2.9925-1.6528 0-2.9926 1.3398-2.9926 2.9925 0 1.6528 1.3398 2.9926 2.9926 2.9926zm0 0v2.9926"/></g></svg>