<svg fill="none" height="40" viewBox="0 0 36 40" width="36" xmlns="http://www.w3.org/2000/svg"><rect height="20" rx="1" stroke="#4ee39d" transform="matrix(0 1 -1 0 61 -8)" width="3" x="34.5" y="26.5"/><path d="m4.5 26.5h5" stroke="#4ee39d"/><g fill="#4ee39d"><path clip-rule="evenodd" d="m34 11.5v12c0 .2761-.2239.5-.5.5h-18c-.2761 0-.5-.2239-.5-.5v-.8152c-.3134.1811-.6525.3009-1 .3593v.4559c0 .8284.6716 1.5 1.5 1.5h18c.8284 0 1.5-.6716 1.5-1.5v-12c0-.8284-.6716-1.5-1.5-1.5h-18c-.8284 0-1.5.6716-1.5 1.5v6.6717l1-1v-5.6717c0-.2761.2239-.5.5-.5h18c.2761 0 .5.2239.5.5z" fill-rule="evenodd"/><path d="m12 17.3152v-2.8152c0-.8284-.6716-1.5-1.5-1.5h-7c-.82843 0-1.5.6716-1.5 1.5v14c0 .8284.67157 1.5 1.5 1.5h7c.8284 0 1.5-.6716 1.5-1.5v-5.8154c-.2221-.1283-.4312-.2875-.6212-.4775l-.3788-.3788v6.6717c0 .2761-.2239.5-.5.5h-7c-.27614 0-.5-.2239-.5-.5v-14c0-.2761.22386-.5.5-.5h7c.2761 0 .5.2239.5.5v2.4559c.3475.0584.6866.1782 1 .3593z"/><rect height="9" opacity=".3" rx="1" transform="matrix(0 1 -1 0 25 2)" width="16" x="11.5" y="13.5"/></g><path d="m5.5 23.5 4.29289-4.2929c.39051-.3905 1.02371-.3905 1.41421 0l1.5858 1.5858c.3905.3905 1.0237.3905 1.4142 0l3.2929-3.2929 1.2929-1.2929c.3905-.3905 1.0237-.3905 1.4142 0l2.5858 2.5858c.3905.3905 1.0237.3905 1.4142 0l4.7929-4.7929m0 0h-2.5m2.5 0v2.5" stroke="#fff"/><rect fill="#4ee39d" height="20" opacity=".3" rx="1" transform="matrix(0 1 -1 0 61 -8)" width="3" x="34.5" y="26.5"/></svg>