<svg fill="none" height="58" viewBox="0 0 54 58" width="54" xmlns="http://www.w3.org/2000/svg"><path d="m33.2205 20.3038-5.7275-3.1166c-.5961-.3244-1.3159-.3244-1.9119-.0001l-5.7278 3.1167m13.3672 0-6.6835 3.6368m6.6835-3.6368-.0002 6.0853c0 .7326-.4005 1.4065-1.044 1.7567l-5.6393 3.0689m0-7.2741-6.6837-3.6368m6.6837 3.6368v7.2741m-6.6837-10.9109.0002 6.0855c0 .7326.4006 1.4065 1.0441 1.7567l5.6394 3.0687" stroke="#fff"/><g stroke="#00cde2"><path d="m43.2462 24.5004c0 2.1631 1.7455 3.9167 3.8988 3.9167 2.1532 0 3.8988-1.7536 3.8988-3.9167s-1.7456-3.9167-3.8988-3.9167c-2.1533 0-3.8988 1.7536-3.8988 3.9167zm0 0h-7.2406"/><path d="m9.82795 24.5004c0 2.1631-1.74554 3.9167-3.89878 3.9167-2.15323 0-3.89877-1.7536-3.89877-3.9167s1.74554-3.9167 3.89877-3.9167c2.15324 0 3.89878 1.7536 3.89878 3.9167zm0 0h7.24055"/><path d="m37.4514 13.5307c.9141.9183 2.3962.9183 3.3103 0s.9141-2.4072 0-3.3255c-.9141-.91835-2.3962-.91835-3.3103 0-.9142.9183-.9142 2.4072 0 3.3255zm0 0-3.6782 3.695"/><path d="m15.9184 13.5307c-.9141.9183-2.3962.9183-3.3103 0s-.9141-2.4072 0-3.3255c.9141-.91835 2.3962-.91835 3.3103 0 .9141.9183.9141 2.4072 0 3.3255zm0 0 3.6782 3.695"/><path d="m37.4514 35.1619c.9141-.9183 2.3962-.9183 3.3103 0 .9141.9184.9141 2.4072 0 3.3256-.9141.9183-2.3962.9183-3.3103 0-.9142-.9184-.9142-2.4072 0-3.3256zm0 0-3.6782-3.695"/><path d="m15.9184 35.1619c-.9141-.9183-2.3962-.9183-3.3103 0-.9141.9184-.9141 2.4072 0 3.3256.9141.9183 2.3962.9183 3.3103 0 .9141-.9184.9141-2.4072 0-3.3256zm0 0 3.6782-3.695"/></g><ellipse cx="26.6611" cy="4.91734" fill="#00cde2" opacity=".4" rx="3.77476" ry="3.7921"/><ellipse cx="26.5372" cy="43.9427" fill="#00cde2" opacity=".4" rx="3.77476" ry="3.7921"/><ellipse cx="47.2689" cy="24.3758" fill="#00cde2" opacity=".4" rx="3.77476" ry="3.7921"/><ellipse cx="5.77476" cy="24.6244" fill="#00cde2" opacity=".4" rx="3.77476" ry="3.7921"/><path d="m26.5371 40.1665c-2.1532 0-3.8987 1.7536-3.8987 3.9167 0 2.1632 1.7455 3.9167 3.8987 3.9167 2.1533 0 3.8988-1.7535 3.8988-3.9167 0-2.1631-1.7455-3.9167-3.8988-3.9167zm0 0v-5.5952" stroke="#00cde2"/><path d="m26.5371 8.83336c-2.1532 0-3.8987-1.75355-3.8987-3.91668 0-2.16312 1.7455-3.91668 3.8987-3.91668 2.1533 0 3.8988 1.75356 3.8988 3.91668 0 2.16313-1.7455 3.91668-3.8988 3.91668zm0 0v3.91664" stroke="#00cde2"/></svg>