<svg fill="none" height="40" viewBox="0 0 36 40" width="36" xmlns="http://www.w3.org/2000/svg"><path d="m3.68421 20c0-7.9529 6.40939-14.4 14.31579-14.4m-14.31579 14.4-2.68421-2.7m2.68421 2.7 3.13158-2.25m25.50001 2.25c0 7.9529-6.4094 14.4-14.3158 14.4m14.3158-14.4 2.6842 2.7m-2.6842-2.7-3.1316 2.25m-2.2368-16.65c0 1.98823-1.6024 3.6-3.579 3.6s-3.5789-1.61177-3.5789-3.6 1.6023-3.6 3.5789-3.6 3.579 1.61177 3.579 3.6zm-10.7369 28.8c0 1.9882-1.6023 3.6-3.5789 3.6s-3.57897-1.6118-3.57897-3.6 1.60237-3.6 3.57897-3.6 3.5789 1.6118 3.5789 3.6z" stroke="#e830fb"/><path d="m26.9474 5.6c0 1.98823-1.6023 3.6-3.5789 3.6s-3.5789-1.61177-3.5789-3.6 1.6023-3.6 3.5789-3.6 3.5789 1.61177 3.5789 3.6z" fill="#e830fb" opacity=".3"/><path d="m16.1579 34.6c0 1.9882-1.6024 3.6-3.579 3.6-1.9765 0-3.5789-1.6118-3.5789-3.6s1.6024-3.6 3.5789-3.6c1.9766 0 3.579 1.6118 3.579 3.6z" fill="#e830fb" opacity=".3"/><path d="m18.6364 12-1.2728 5.8182h7.6364l-7.6364 10.1818 1.2728-5.8182h-7.6364z" stroke="#fff"/></svg>