<svg fill="none" height="978" viewBox="0 0 1857 978" width="1857" xmlns="http://www.w3.org/2000/svg" xmlns:xlink="http://www.w3.org/1999/xlink"><clipPath id="a"><path d="m0 0h1857v978h-1857z"/></clipPath><g clip-path="url(#a)" stroke="#2d68ff" stroke-dasharray=".05 20" stroke-linecap="round" stroke-width="5"><path d="m36.5937 973.126h594.3193c95.364 0 184.172-48.538 235.668-128.803l62.78-97.855c51.496-80.266 140.299-128.803 235.669-128.803h97.29c135.64 0 238.16-122.836 213.9-256.284-24.26-133.448 78.26-256.285 213.9-256.285h159.9" opacity=".043478"/><path d="m26.5937 973.126h594.3193c95.364 0 184.172-48.538 235.668-128.803l62.78-97.855c51.496-80.266 140.299-128.803 235.669-128.803h97.29c135.64 0 238.16-122.836 213.9-256.284-24.26-133.448 78.26-256.285 213.9-256.285h159.9" opacity=".086957"/><path d="m16.5937 973.126h594.3193c95.364 0 184.172-48.538 235.668-128.803l62.78-97.855c51.496-80.266 140.299-128.803 235.669-128.803h97.29c135.64 0 238.16-122.836 213.9-256.284-24.26-133.448 78.26-256.285 213.9-256.285h159.9" opacity=".130435"/><path d="m6.59366 973.126h594.31934c95.364 0 184.172-48.538 235.668-128.803l62.78-97.855c51.496-80.266 140.299-128.803 235.669-128.803h97.29c135.64 0 238.16-122.836 213.9-256.284-24.26-133.448 78.26-256.285 213.9-256.285h159.9" opacity=".173913"/><path d="m-3.40634 973.126h594.31934c95.364 0 184.172-48.538 235.668-128.803l62.78-97.855c51.496-80.266 140.299-128.803 235.669-128.803h97.29c135.64 0 238.16-122.836 213.9-256.284-24.26-133.448 78.26-256.285 213.9-256.285h159.9" opacity=".217391"/><path d="m-13.4063 973.126h594.3193c95.364 0 184.172-48.538 235.668-128.803l62.78-97.855c51.496-80.266 140.299-128.803 235.669-128.803h97.29c135.64 0 238.16-122.836 213.9-256.284-24.26-133.448 78.26-256.285 213.9-256.285h159.9" opacity=".26087"/><path d="m-23.4063 973.126h594.3193c95.364 0 184.172-48.538 235.668-128.803l62.78-97.855c51.496-80.266 140.299-128.803 235.669-128.803h97.29c135.64 0 238.16-122.836 213.9-256.284-24.26-133.448 78.26-256.285 213.9-256.285h159.9" opacity=".304348"/><path d="m-33.4063 973.126h594.3193c95.364 0 184.172-48.538 235.668-128.803l62.78-97.855c51.496-80.266 140.304-128.803 235.669-128.803h97.29c135.64 0 238.16-122.836 213.9-256.284-24.26-133.448 78.26-256.285 213.9-256.285h159.9" opacity=".347826"/><path d="m-43.4063 973.126h594.3193c95.364 0 184.172-48.538 235.668-128.803l62.78-97.855c51.496-80.266 140.304-128.803 235.669-128.803h97.29c135.64 0 238.16-122.836 213.9-256.284-24.26-133.448 78.26-256.285 213.9-256.285h159.9" opacity=".391304"/><path d="m-53.4063 973.126h594.3193c95.364 0 184.172-48.538 235.668-128.803l62.78-97.855c51.496-80.266 140.304-128.803 235.669-128.803h97.29c135.64 0 238.16-122.836 213.9-256.284-24.26-133.448 78.26-256.285 213.9-256.285h159.9" opacity=".434783"/><path d="m-63.4063 973.126h594.3193c95.364 0 184.172-48.538 235.668-128.803l62.78-97.855c51.496-80.266 140.304-128.803 235.669-128.803h97.29c135.64 0 238.16-122.836 213.9-256.284-24.26-133.448 78.26-256.285 213.9-256.285h159.9" opacity=".478261"/><path d="m-73.4063 973.126h594.3193c95.364 0 184.172-48.538 235.668-128.803l62.78-97.855c51.496-80.266 140.304-128.803 235.669-128.803h97.29c135.64 0 238.16-122.836 213.9-256.284-24.26-133.448 78.26-256.285 213.9-256.285h159.9" opacity=".521739"/><path d="m-83.4063 973.126h594.3193c95.364 0 184.172-48.538 235.668-128.803l62.78-97.855c51.496-80.266 140.304-128.803 235.669-128.803h97.29c135.64 0 238.16-122.836 213.9-256.284-24.26-133.448 78.26-256.285 213.9-256.285h159.9" opacity=".565217"/><path d="m-93.4063 973.126h594.3193c95.364 0 184.172-48.538 235.668-128.803l62.78-97.855c51.496-80.266 140.304-128.803 235.669-128.803h97.29c135.64 0 238.16-122.836 213.9-256.284-24.26-133.448 78.26-256.285 213.9-256.285h159.9" opacity=".608696"/><path d="m-103.406 973.126h594.319c95.364 0 184.172-48.538 235.668-128.803l62.78-97.855c51.496-80.266 140.304-128.803 235.669-128.803h97.29c135.64 0 238.16-122.836 213.9-256.284-24.26-133.448 78.26-256.285 213.9-256.285h159.9" opacity=".652174"/><path d="m-113.406 973.126h594.319c95.364 0 184.172-48.538 235.668-128.803l62.78-97.855c51.496-80.266 140.304-128.803 235.669-128.803h97.29c135.64 0 238.16-122.836 213.9-256.284-24.26-133.448 78.26-256.285 213.9-256.285h159.9" opacity=".695652"/><path d="m-123.406 973.126h594.319c95.364 0 184.172-48.538 235.668-128.803l62.78-97.855c51.496-80.266 140.304-128.803 235.669-128.803h97.29c135.64 0 238.16-122.836 213.9-256.284-24.26-133.448 78.26-256.285 213.9-256.285h159.9" opacity=".73913"/><path d="m-133.406 973.126h594.319c95.364 0 184.172-48.538 235.668-128.803l62.78-97.855c51.496-80.266 140.304-128.803 235.668-128.803h97.291c135.64 0 238.16-122.836 213.9-256.284-24.26-133.448 78.26-256.285 213.9-256.285h159.9" opacity=".782609"/><path d="m-143.406 973.126h594.319c95.364 0 184.172-48.538 235.668-128.803l62.78-97.855c51.496-80.266 140.304-128.803 235.668-128.803h97.291c135.64 0 238.16-122.836 213.9-256.284-24.26-133.448 78.26-256.285 213.9-256.285h159.9" opacity=".826087"/><path d="m-153.406 973.126h594.319c95.364 0 184.172-48.538 235.668-128.803l62.78-97.855c51.496-80.266 140.304-128.803 235.668-128.803h97.291c135.64 0 238.16-122.836 213.9-256.284-24.26-133.448 78.26-256.285 213.9-256.285h159.9" opacity=".869565"/><path d="m-163.406 973.126h594.319c95.364 0 184.172-48.538 235.668-128.803l62.78-97.855c51.496-80.266 140.304-128.803 235.668-128.803h97.291c135.64 0 238.16-122.836 213.9-256.284-24.26-133.448 78.26-256.285 213.9-256.285h159.9" opacity=".913043"/><path d="m-173.406 973.126h594.319c95.364 0 184.172-48.538 235.668-128.803l62.78-97.855c51.496-80.266 140.304-128.803 235.668-128.803h97.291c135.64 0 238.16-122.836 213.9-256.284-24.26-133.448 78.26-256.285 213.9-256.285h159.9" opacity=".956522"/><path d="m-183.406 973.126h594.319c95.364 0 184.172-48.538 235.668-128.803l62.78-97.855c51.496-80.266 140.304-128.803 235.668-128.803h97.291c135.64 0 238.16-122.836 213.9-256.284-24.26-133.448 78.26-256.285 213.9-256.285h159.9"/></g></svg>