<svg fill="none" height="978" viewBox="0 0 1857 978" width="1857" xmlns="http://www.w3.org/2000/svg" xmlns:xlink="http://www.w3.org/1999/xlink"><clipPath id="a"><path d="m0 0h1857v978h-1857z"/></clipPath><g clip-path="url(#a)" stroke="#00d2ff" stroke-dasharray=".05 20" stroke-linecap="round" stroke-width="5"><path d="m-301.408 973.791h948.057c94.142 0 172.427-40.39 210.251-108.475l36.465-65.641c35.201-63.363 105.622-102.993 191.825-107.949l186.5-10.723c58.44-3.36 99.64-39.895 102.5-90.89 2.19-39.199 26.92-71.197 67.68-82.972 66.92-19.329 117.78-26.613 193.41-30.112" opacity=".043478"/><path d="m-291.408 973.791h948.057c94.142 0 172.427-40.39 210.251-108.475l36.465-65.641c35.201-63.363 105.625-102.993 191.825-107.949l186.5-10.723c58.44-3.36 99.64-39.895 102.5-90.89 2.19-39.199 26.92-71.197 67.68-82.972 66.92-19.329 117.78-26.613 193.41-30.112" opacity=".086957"/><path d="m-281.408 973.791h948.057c94.142 0 172.427-40.39 210.251-108.475l36.465-65.641c35.201-63.363 105.625-102.993 191.825-107.949l186.5-10.723c58.44-3.36 99.64-39.895 102.5-90.89 2.19-39.199 26.92-71.197 67.68-82.972 66.92-19.329 117.78-26.613 193.41-30.112" opacity=".130435"/><path d="m-271.408 973.791h948.057c94.142 0 172.427-40.39 210.251-108.475l36.465-65.641c35.201-63.363 105.625-102.993 191.825-107.949l186.5-10.723c58.44-3.36 99.64-39.895 102.5-90.89 2.19-39.199 26.92-71.197 67.68-82.972 66.92-19.329 117.78-26.613 193.41-30.112" opacity=".173913"/><path d="m-261.408 973.791h948.057c94.142 0 172.427-40.39 210.251-108.475l36.465-65.641c35.201-63.363 105.625-102.993 191.825-107.949l186.5-10.723c58.44-3.36 99.64-39.895 102.5-90.89 2.19-39.199 26.92-71.197 67.68-82.972 66.92-19.329 117.78-26.613 193.41-30.112" opacity=".217391"/><path d="m-251.408 973.791h948.057c94.142 0 172.427-40.39 210.251-108.475l36.465-65.641c35.201-63.363 105.625-102.993 191.825-107.949l186.5-10.723c58.44-3.36 99.64-39.895 102.5-90.89 2.19-39.199 26.92-71.197 67.68-82.972 66.92-19.329 117.78-26.613 193.41-30.112" opacity=".26087"/><path d="m-241.408 973.791h948.057c94.142 0 172.427-40.39 210.251-108.475l36.465-65.641c35.201-63.363 105.625-102.993 191.825-107.949l186.5-10.723c58.44-3.36 99.64-39.895 102.5-90.89 2.19-39.199 26.92-71.197 67.68-82.972 66.92-19.329 117.78-26.613 193.41-30.112" opacity=".304348"/><path d="m-231.408 973.791h948.057c94.142 0 172.427-40.39 210.251-108.475l36.465-65.641c35.201-63.363 105.625-102.993 191.825-107.949l186.5-10.723c58.44-3.36 99.64-39.895 102.5-90.89 2.19-39.199 26.92-71.197 67.68-82.972 66.92-19.329 117.78-26.613 193.41-30.112" opacity=".347826"/><path d="m-221.408 973.791h948.057c94.142 0 172.427-40.39 210.251-108.475l36.465-65.641c35.205-63.363 105.625-102.993 191.825-107.949l186.5-10.723c58.44-3.36 99.64-39.895 102.5-90.89 2.19-39.199 26.92-71.197 67.68-82.972 66.92-19.329 117.78-26.613 193.41-30.112" opacity=".391304"/><path d="m-211.408 973.791h948.057c94.142 0 172.427-40.39 210.251-108.475l36.465-65.641c35.205-63.363 105.625-102.993 191.825-107.949l186.5-10.723c58.44-3.36 99.64-39.895 102.5-90.89 2.19-39.199 26.92-71.197 67.68-82.972 66.92-19.329 117.78-26.613 193.41-30.112" opacity=".434783"/><path d="m-201.408 973.791h948.057c94.142 0 172.427-40.39 210.251-108.475l36.465-65.641c35.205-63.363 105.625-102.993 191.825-107.949l186.5-10.723c58.44-3.36 99.64-39.895 102.5-90.89 2.19-39.199 26.92-71.197 67.68-82.972 66.92-19.329 117.78-26.613 193.41-30.112" opacity=".478261"/><path d="m-191.408 973.791h948.057c94.142 0 172.427-40.39 210.251-108.475l36.47-65.641c35.2-63.363 105.62-102.993 191.82-107.949l186.5-10.723c58.44-3.36 99.64-39.895 102.5-90.89 2.19-39.199 26.92-71.197 67.68-82.972 66.92-19.329 117.78-26.613 193.41-30.112" opacity=".521739"/><path d="m-181.408 973.791h948.057c94.142 0 172.427-40.39 210.251-108.475l36.47-65.641c35.2-63.363 105.62-102.993 191.82-107.949l186.5-10.723c58.44-3.36 99.64-39.895 102.5-90.89 2.19-39.199 26.92-71.197 67.68-82.972 66.92-19.329 117.78-26.613 193.41-30.112" opacity=".565217"/><path d="m-171.408 973.791h948.057c94.142 0 172.427-40.39 210.251-108.475l36.47-65.641c35.2-63.363 105.62-102.993 191.82-107.949l186.5-10.723c58.44-3.36 99.64-39.895 102.5-90.89 2.19-39.199 26.92-71.197 67.68-82.972 66.92-19.329 117.78-26.613 193.41-30.112" opacity=".608696"/><path d="m-161.408 973.791h948.057c94.142 0 172.427-40.39 210.251-108.475l36.47-65.641c35.2-63.363 105.62-102.993 191.82-107.949l186.5-10.723c58.44-3.36 99.64-39.895 102.5-90.89 2.19-39.199 26.92-71.197 67.68-82.972 66.92-19.329 117.78-26.613 193.41-30.112" opacity=".652174"/><path d="m-151.408 973.791h948.057c94.142 0 172.427-40.39 210.251-108.475l36.47-65.641c35.2-63.363 105.62-102.993 191.82-107.949l186.5-10.723c58.44-3.36 99.64-39.895 102.5-90.89 2.19-39.199 26.92-71.197 67.68-82.972 66.92-19.329 117.78-26.613 193.41-30.112" opacity=".695652"/><path d="m-141.408 973.791h948.057c94.142 0 172.427-40.39 210.251-108.475l36.47-65.641c35.2-63.363 105.62-102.993 191.82-107.949l186.5-10.723c58.44-3.36 99.64-39.895 102.5-90.89 2.19-39.199 26.92-71.197 67.68-82.972 66.92-19.329 117.78-26.613 193.41-30.112" opacity=".73913"/><path d="m-131.408 973.791h948.057c94.142 0 172.427-40.39 210.251-108.475l36.47-65.641c35.2-63.363 105.62-102.993 191.82-107.949l186.5-10.723c58.44-3.36 99.64-39.895 102.5-90.89 2.19-39.199 26.92-71.197 67.68-82.972 66.92-19.329 117.78-26.613 193.41-30.112" opacity=".782609"/><path d="m-121.408 973.791h948.057c94.142 0 172.427-40.39 210.251-108.475l36.47-65.641c35.2-63.363 105.62-102.993 191.82-107.949l186.5-10.723c58.44-3.36 99.64-39.895 102.5-90.89 2.19-39.199 26.92-71.197 67.68-82.972 66.92-19.329 117.78-26.613 193.41-30.112" opacity=".826087"/><path d="m-111.408 973.791h948.057c94.142 0 172.431-40.39 210.251-108.475l36.47-65.641c35.2-63.363 105.62-102.993 191.82-107.949l186.5-10.723c58.44-3.36 99.64-39.895 102.5-90.89 2.19-39.199 26.92-71.197 67.68-82.972 66.92-19.329 117.78-26.613 193.41-30.112" opacity=".869565"/><path d="m-101.408 973.791h948.057c94.142 0 172.431-40.39 210.251-108.475l36.47-65.641c35.2-63.363 105.62-102.993 191.82-107.949l186.5-10.723c58.44-3.36 99.64-39.895 102.5-90.89 2.19-39.199 26.92-71.197 67.68-82.972 66.92-19.329 117.78-26.613 193.41-30.112" opacity=".913043"/><path d="m-91.4078 973.791h948.0568c94.142 0 172.431-40.39 210.251-108.475l36.47-65.641c35.2-63.363 105.62-102.993 191.82-107.949l186.5-10.723c58.44-3.36 99.64-39.895 102.5-90.89 2.19-39.199 26.92-71.197 67.68-82.972 66.92-19.329 117.78-26.613 193.41-30.112" opacity=".956522"/><path d="m-81.4078 973.791h948.0568c94.141 0 172.431-40.39 210.251-108.475l36.47-65.641c35.2-63.363 105.62-102.993 191.82-107.949l186.5-10.723c58.44-3.36 99.64-39.895 102.5-90.89 2.19-39.199 26.92-71.197 67.68-82.972 66.92-19.329 117.78-26.613 193.41-30.112"/></g></svg>