<svg fill="none" height="978" viewBox="0 0 1857 978" width="1857" xmlns="http://www.w3.org/2000/svg" xmlns:xlink="http://www.w3.org/1999/xlink"><linearGradient id="a" gradientUnits="userSpaceOnUse" x1="-142.517" x2="518.562" y1="969.407" y2="966.552"><stop offset=".2185" stop-color="#07071c"/><stop offset=".508251" stop-color="#ab21ec"/><stop offset=".755624" stop-color="#ab21ec" stop-opacity="0"/></linearGradient><clipPath id="b"><path d="m0 0h1857v978h-1857z"/></clipPath><g clip-path="url(#b)" stroke-linecap="round"><g stroke="#ab21ec" stroke-dasharray=".05 20" stroke-width="5"><path d="m-413.406 973.17h559.914c113.424 0 215.644-68.428 258.869-173.292l82.905-201.124c39.447-95.698 128.473-161.827 231.487-171.95l134.54-13.221c99.247-9.752 175.911-91.517 179.271-191.185 2.33-69.313 39.63-134.5772 103.18-162.3498 66.21-28.9376 121.7-40.7715 200.06-46.7973" opacity=".043478"/><path d="m-403.406 973.17h559.914c113.424 0 215.644-68.428 258.869-173.292l82.905-201.124c39.447-95.698 128.473-161.827 231.487-171.95l134.54-13.221c99.247-9.752 175.911-91.517 179.271-191.185 2.33-69.313 39.63-134.5772 103.18-162.3498 66.21-28.9376 121.7-40.7715 200.06-46.7973" opacity=".086957"/><path d="m-393.406 973.17h559.914c113.424 0 215.644-68.428 258.869-173.292l82.905-201.124c39.447-95.698 128.473-161.827 231.487-171.95l134.54-13.221c99.247-9.752 175.911-91.517 179.271-191.185 2.33-69.312 39.63-134.5772 103.18-162.3498 66.21-28.9375 121.7-40.7715 200.06-46.7973" opacity=".130435"/><path d="m-383.406 973.17h559.914c113.424 0 215.644-68.428 258.869-173.292l82.905-201.124c39.447-95.698 128.473-161.827 231.487-171.95l134.54-13.221c99.247-9.752 175.911-91.517 179.271-191.185 2.33-69.312 39.63-134.5772 103.18-162.3498 66.21-28.9375 121.7-40.7715 200.06-46.7973" opacity=".173913"/><path d="m-373.406 973.17h559.914c113.424 0 215.644-68.428 258.869-173.292l82.905-201.124c39.447-95.698 128.473-161.827 231.487-171.95l134.54-13.221c99.247-9.752 175.911-91.517 179.271-191.185 2.33-69.312 39.63-134.5772 103.18-162.3498 66.21-28.9375 121.7-40.7715 200.06-46.7973" opacity=".217391"/><path d="m-363.406 973.17h559.914c113.424 0 215.644-68.428 258.869-173.292l82.905-201.124c39.447-95.698 128.473-161.827 231.487-171.95l134.54-13.221c99.251-9.752 175.911-91.517 179.271-191.185 2.33-69.312 39.63-134.5772 103.18-162.3498 66.21-28.9375 121.7-40.7715 200.06-46.7973" opacity=".26087"/><path d="m-353.406 973.17h559.914c113.424 0 215.644-68.428 258.869-173.292l82.905-201.124c39.447-95.698 128.473-161.827 231.487-171.95l134.54-13.221c99.251-9.752 175.911-91.517 179.271-191.185 2.33-69.312 39.63-134.5772 103.18-162.3498 66.21-28.9375 121.7-40.7715 200.06-46.7973" opacity=".304348"/><path d="m-343.406 973.17h559.914c113.424 0 215.644-68.428 258.869-173.292l82.905-201.124c39.447-95.698 128.473-161.827 231.487-171.95l134.54-13.221c99.251-9.752 175.911-91.517 179.271-191.185 2.33-69.312 39.63-134.5771 103.18-162.3498 66.21-28.9375 121.7-40.7714 200.06-46.7972" opacity=".347826"/><path d="m-333.406 973.17h559.914c113.424 0 215.644-68.428 258.869-173.292l82.905-201.124c39.447-95.698 128.473-161.827 231.487-171.95l134.54-13.221c99.251-9.752 175.911-91.517 179.271-191.185 2.33-69.313 39.63-134.5772 103.18-162.3498 66.21-28.9376 121.7-40.7715 200.06-46.7973" opacity=".391304"/><path d="m-323.406 973.17h559.914c113.424 0 215.644-68.428 258.869-173.292l82.905-201.124c39.447-95.698 128.473-161.827 231.487-171.95l134.54-13.221c99.251-9.752 175.911-91.517 179.271-191.185 2.33-69.313 39.63-134.5772 103.18-162.3498 66.21-28.9376 121.7-40.7715 200.06-46.7973" opacity=".434783"/><path d="m-313.406 973.17h559.914c113.424 0 215.644-68.428 258.869-173.292l82.905-201.124c39.447-95.698 128.473-161.827 231.487-171.95l134.54-13.221c99.251-9.752 175.911-91.517 179.271-191.185 2.33-69.313 39.63-134.5772 103.18-162.3498 66.21-28.9376 121.7-40.7715 200.06-46.7973" opacity=".478261"/><path d="m-303.406 973.17h559.914c113.424 0 215.644-68.428 258.869-173.292l82.905-201.124c39.447-95.698 128.473-161.827 231.487-171.95l134.54-13.221c99.251-9.752 175.911-91.517 179.271-191.185 2.33-69.313 39.63-134.5772 103.18-162.3498 66.21-28.9376 121.7-40.7715 200.06-46.7973" opacity=".521739"/><path d="m-293.406 973.17h559.914c113.424 0 215.644-68.428 258.869-173.292l82.905-201.124c39.447-95.698 128.473-161.827 231.487-171.95l134.54-13.221c99.251-9.752 175.911-91.517 179.271-191.185 2.33-69.312 39.63-134.5772 103.18-162.3498 66.21-28.9375 121.7-40.7715 200.06-46.7973" opacity=".565217"/><path d="m-283.406 973.17h559.914c113.424 0 215.644-68.428 258.869-173.292l82.905-201.124c39.447-95.698 128.473-161.827 231.487-171.95l134.54-13.221c99.251-9.752 175.911-91.517 179.271-191.185 2.33-69.312 39.63-134.5772 103.18-162.3498 66.21-28.9375 121.7-40.7715 200.06-46.7973" opacity=".608696"/><path d="m-273.406 973.17h559.914c113.424 0 215.644-68.428 258.869-173.292l82.905-201.124c39.447-95.698 128.473-161.827 231.487-171.95l134.54-13.221c99.251-9.752 175.911-91.517 179.271-191.185 2.33-69.312 39.63-134.5772 103.18-162.3498 66.21-28.9375 121.7-40.7715 200.06-46.7973" opacity=".652174"/><path d="m-263.406 973.17h559.914c113.424 0 215.644-68.428 258.869-173.292l82.905-201.124c39.447-95.698 128.473-161.827 231.487-171.95l134.541-13.221c99.25-9.752 175.91-91.517 179.27-191.185 2.33-69.312 39.63-134.5772 103.18-162.3498 66.21-28.9375 121.7-40.7715 200.06-46.7973" opacity=".695652"/><path d="m-253.406 973.17h559.914c113.424 0 215.644-68.428 258.869-173.292l82.905-201.124c39.447-95.698 128.473-161.827 231.487-171.95l134.541-13.221c99.25-9.752 175.91-91.517 179.27-191.185 2.33-69.312 39.63-134.5771 103.18-162.3498 66.21-28.9375 121.7-40.7714 200.06-46.7972" opacity=".73913"/><path d="m-243.406 973.17h559.914c113.424 0 215.644-68.428 258.869-173.292l82.905-201.124c39.447-95.698 128.473-161.827 231.487-171.95l134.541-13.221c99.25-9.752 175.91-91.517 179.27-191.185 2.33-69.313 39.63-134.5772 103.18-162.3498 66.21-28.9376 121.7-40.7715 200.06-46.7973" opacity=".782609"/><path d="m-233.406 973.17h559.914c113.424 0 215.644-68.428 258.869-173.292l82.905-201.124c39.447-95.698 128.473-161.827 231.487-171.95l134.541-13.221c99.25-9.752 175.91-91.517 179.27-191.185 2.33-69.313 39.63-134.5772 103.18-162.3498 66.21-28.9376 121.7-40.7715 200.06-46.7973" opacity=".826087"/><path d="m-223.406 973.17h559.914c113.424 0 215.644-68.428 258.869-173.292l82.905-201.124c39.447-95.698 128.473-161.827 231.487-171.95l134.541-13.221c99.25-9.752 175.91-91.517 179.27-191.185 2.33-69.313 39.63-134.5772 103.18-162.3498 66.21-28.9376 121.7-40.7715 200.06-46.7973" opacity=".869565"/><path d="m-213.406 973.17h559.914c113.424 0 215.644-68.428 258.869-173.292l82.905-201.124c39.447-95.698 128.473-161.827 231.487-171.95l134.541-13.221c99.25-9.752 175.91-91.517 179.27-191.185 2.33-69.313 39.63-134.5772 103.18-162.3498 66.21-28.9376 121.7-40.7715 200.06-46.7973" opacity=".913043"/><path d="m-203.406 973.17h559.914c113.424 0 215.644-68.428 258.869-173.292l82.905-201.124c39.447-95.698 128.473-161.827 231.487-171.95l134.541-13.221c99.25-9.752 175.91-91.517 179.27-191.185 2.33-69.312 39.63-134.5772 103.18-162.3498 66.21-28.9375 121.7-40.7715 200.06-46.7973" opacity=".956522"/><path d="m-193.406 973.17h559.914c113.424 0 215.643-68.428 258.869-173.292l82.905-201.124c39.447-95.698 128.473-161.827 231.487-171.95l134.541-13.221c99.25-9.752 175.91-91.517 179.27-191.185 2.33-69.312 39.63-134.5771 103.18-162.3497 66.21-28.9376 121.7-40.7715 200.06-46.7973"/></g><path d="m-514.338 973.303h880.2c113.28 0 215.399-68.256 258.719-172.926l83.585-201.963c39.528-95.511 128.463-161.475 231.335-171.584l134.809-13.247c99.25-9.753 175.92-91.517 179.27-191.185 2.33-69.313 39.63-134.5775 103.18-162.3501 66.22-28.9373 121.7-40.7709 200.06-46.7967" stroke="url(#a)" stroke-width="6"/></g></svg>